<svg width="162" height="19" viewBox="0 0 162 19" fill="none" xmlns="http://www.w3.org/2000/svg">
<mask id="mask0_29_50" style="mask-type:luminance" maskUnits="userSpaceOnUse" x="0" y="0" width="30" height="18">
<path d="M0 0.220215H29.7892V17.7249H0V0.220215Z" fill="white"/>
</mask>
<g mask="url(#mask0_29_50)">
<path d="M14.9267 16.4056C15.751 16.4056 16.5236 16.0428 17.0455 15.4106L28.4027 1.65963C28.424 1.63427 28.4265 1.61374 28.4125 1.58355C28.3978 1.55397 28.3801 1.54249 28.3472 1.54249H21.4528C21.4302 1.54249 21.4113 1.55155 21.3967 1.56906L16.0126 8.08741C15.9559 8.15624 15.8925 8.21964 15.8236 8.27639C15.8205 8.27941 15.8175 8.28243 15.8144 8.28545L15.7943 8.30417C15.784 8.31383 15.7736 8.32409 15.7626 8.33375C15.7541 8.3416 15.7455 8.35006 15.737 8.3579L15.7169 8.37602C15.7059 8.38628 15.6949 8.39715 15.684 8.40681C15.6754 8.41466 15.6669 8.42251 15.659 8.42975L15.6382 8.44787C15.6273 8.45874 15.6157 8.4684 15.6047 8.47866C15.5968 8.4859 15.5888 8.49255 15.5809 8.49979L15.5596 8.51851C15.548 8.52877 15.5364 8.53904 15.5248 8.5493C15.5169 8.55594 15.509 8.56258 15.501 8.56983L15.4809 8.58794C15.4687 8.59821 15.4565 8.60847 15.4443 8.61874C15.437 8.62538 15.4291 8.63202 15.4218 8.63806L15.4017 8.65496C15.3888 8.66583 15.376 8.6767 15.3632 8.68757L15.323 8.72077C15.309 8.73285 15.2956 8.74372 15.2815 8.75519C15.2748 8.76062 15.2681 8.76606 15.2608 8.77149L15.2431 8.78598C15.2285 8.79806 15.2145 8.80953 15.2004 8.821L15.1596 8.853C15.1456 8.86387 15.1315 8.87474 15.1175 8.88621L15.0797 8.91519C15.0651 8.92666 15.0498 8.93813 15.0346 8.95021L14.9992 8.97677C14.9834 8.98885 14.9669 9.00093 14.951 9.013L14.9157 9.03836C14.8998 9.05043 14.8834 9.06251 14.8675 9.07398L14.8346 9.09753C14.8175 9.11021 14.8004 9.12228 14.7828 9.13496L14.7504 9.1573C14.7328 9.16938 14.7157 9.18206 14.698 9.19413L14.6718 9.21164C14.6523 9.22493 14.6328 9.23821 14.6132 9.25149L14.5864 9.2696C14.5669 9.28289 14.5468 9.29617 14.5273 9.30885L14.5023 9.32515C14.4822 9.33844 14.4614 9.35172 14.4413 9.3644L14.4163 9.3801C14.3956 9.39338 14.3754 9.40606 14.3547 9.41934L14.3328 9.43262C14.3108 9.44591 14.2895 9.45919 14.2675 9.47247L14.2462 9.48515C14.2242 9.49844 14.2023 9.51172 14.1803 9.5244L14.159 9.53708C14.137 9.54976 14.1151 9.56244 14.0925 9.57511L14.0718 9.58719C14.0492 9.59987 14.0273 9.61255 14.0047 9.62523L13.9846 9.6361C13.9614 9.64878 13.9389 9.66145 13.9163 9.67353L13.8974 9.68379C13.8736 9.69647 13.8505 9.70915 13.8273 9.72062L13.8096 9.73028C13.7858 9.74296 13.762 9.75504 13.7383 9.76711L13.7206 9.77617C13.6962 9.78825 13.6724 9.80032 13.6486 9.81179L13.6322 9.82025C13.6072 9.83172 13.5834 9.84379 13.559 9.85527L13.5407 9.86432C13.5169 9.87579 13.4925 9.88727 13.4681 9.89813L13.4517 9.90598C13.4273 9.91685 13.4023 9.92832 13.3779 9.93919L13.3627 9.94644C13.337 9.9573 13.312 9.96817 13.287 9.97904L13.2712 9.98568C13.2462 9.99655 13.2212 10.0074 13.1956 10.0177L13.1809 10.0243C13.1559 10.0346 13.1303 10.0449 13.1041 10.0551L13.0901 10.0612C13.0639 10.0714 13.0383 10.0817 13.0127 10.0919L12.9992 10.0968C12.9724 10.107 12.9468 10.1167 12.9206 10.1264L12.9072 10.1312C12.881 10.1409 12.8547 10.1511 12.8279 10.1602L12.8145 10.165C12.7883 10.1747 12.7621 10.1837 12.7352 10.1928L12.7218 10.197C12.695 10.2067 12.6688 10.2151 12.6425 10.2236L12.6297 10.2278C12.6035 10.2369 12.5761 10.2453 12.5492 10.2538L12.5383 10.2574C12.5108 10.2658 12.4834 10.2743 12.456 10.2821L12.445 10.2858C12.4175 10.2936 12.3901 10.3021 12.3627 10.3099L12.3505 10.3129C12.3236 10.3208 12.2962 10.328 12.2688 10.3359L12.256 10.3389C12.2291 10.3461 12.2017 10.3534 12.1749 10.3606L12.1621 10.3636C12.1352 10.3703 12.1078 10.3775 12.0804 10.3842L12.0712 10.386C12.0419 10.3932 12.0139 10.3999 11.9858 10.4059L11.9736 10.4089C11.9462 10.415 11.9188 10.421 11.8913 10.427L11.8816 10.4289C11.8523 10.4349 11.8243 10.4409 11.7962 10.4464L11.7877 10.4482C11.7578 10.4542 11.7297 10.4596 11.7011 10.4645L11.6926 10.4663C11.6633 10.4717 11.6346 10.4766 11.606 10.4814L11.5974 10.4832C11.5682 10.488 11.5395 10.4929 11.5108 10.4971L11.5017 10.4989C11.473 10.5031 11.4444 10.5073 11.4157 10.5116L11.4066 10.5128C11.3779 10.5164 11.3487 10.5206 11.32 10.5242L11.3115 10.5255C11.2822 10.5291 11.2529 10.5327 11.2243 10.5363H11.22C11.1889 10.5399 11.1584 10.5436 11.1285 10.546L11.123 10.5466C11.092 10.5496 11.0621 10.5526 11.0328 10.555L11.0224 10.5556C10.9926 10.5587 10.9645 10.5605 10.9365 10.5629L10.9285 10.5635C10.8993 10.5653 10.87 10.5671 10.8407 10.5689H10.8322C10.8029 10.5707 10.7737 10.5726 10.7444 10.5738H10.7352C10.7054 10.5756 10.6767 10.5762 10.6481 10.5768L10.6371 10.5774C10.6084 10.578 10.5798 10.5786 10.5517 10.5792H10.5377C10.5103 10.5798 10.4828 10.5798 10.4554 10.5798H10.4413C10.3798 10.5798 10.32 10.5786 10.2627 10.5774C10.256 10.5768 10.2487 10.5768 10.2414 10.5762L10.2206 10.5756C10.2029 10.5756 10.1846 10.575 10.1664 10.5738C10.1346 10.5726 10.1023 10.5707 10.07 10.5689C10.0084 10.5653 9.94562 10.5611 9.88343 10.5556C9.45051 10.5194 9.02369 10.4409 8.6054 10.322L12.8078 15.4106C13.3303 16.0428 14.1023 16.4056 14.9267 16.4056ZM13.8889 8.14296C13.8724 8.12485 13.8559 8.10613 13.8407 8.08741L8.45662 1.56906C8.44259 1.55155 8.42308 1.54249 8.40052 1.54249H1.5061C1.47317 1.54249 1.45549 1.55397 1.44086 1.58355C1.42683 1.61314 1.42988 1.63427 1.45061 1.65963L5.69751 6.80198L5.70422 6.80922C5.71946 6.82794 5.7347 6.84605 5.74995 6.86417L5.76397 6.88107C5.77251 6.89194 5.78226 6.9022 5.79141 6.91307L5.85909 6.99156C5.86763 7.00122 5.87556 7.01028 5.88409 7.01994L5.90238 7.04047C5.91641 7.05617 5.93043 7.07186 5.94446 7.08756L5.94994 7.0936C7.0792 8.34221 8.44503 9.08183 9.89928 9.23036C9.92611 9.23338 9.95294 9.23579 9.97977 9.23821L9.99257 9.23942C10.0432 9.24364 10.095 9.24726 10.1468 9.25028C10.1859 9.2527 10.2273 9.25451 10.2737 9.25572L10.2895 9.25632C10.3279 9.25753 10.3694 9.25874 10.4115 9.25874H10.4298C10.4724 9.25874 10.5139 9.25874 10.5529 9.25813H10.5657C10.6542 9.25572 10.742 9.2521 10.8285 9.24606L10.834 9.24545C10.8755 9.24243 10.9176 9.23881 10.9627 9.23519L10.9749 9.23398C11.0182 9.22976 11.0609 9.22493 11.1023 9.22009L11.1127 9.21889C11.245 9.20259 11.3791 9.18145 11.5108 9.15549L11.5224 9.15368C11.5633 9.14583 11.606 9.13677 11.6487 9.12711L11.6596 9.1247C11.7041 9.11504 11.7474 9.10477 11.7889 9.09451L11.7926 9.09391C11.8791 9.07277 11.9675 9.04802 12.0554 9.02206L12.0651 9.01964C12.1054 9.00757 12.1474 8.99428 12.1901 8.981L12.2035 8.97677C12.2468 8.96228 12.2889 8.9484 12.3285 8.93451L12.3371 8.93149C12.4224 8.9013 12.509 8.8693 12.5938 8.83549L12.6035 8.83126C12.6425 8.81557 12.6834 8.79866 12.7255 8.78055L12.7413 8.77391C12.7822 8.7564 12.8224 8.73889 12.8614 8.72077L12.8749 8.71474C12.9206 8.69421 12.9608 8.67549 12.9986 8.65677L13.0005 8.65617C13.0395 8.63685 13.0797 8.61753 13.1236 8.59458L13.134 8.58975C13.1718 8.57043 13.2102 8.55051 13.2523 8.52817L13.27 8.51851C13.309 8.49738 13.3474 8.47624 13.3852 8.45511L13.4035 8.44485C13.4456 8.4207 13.4834 8.39896 13.52 8.37723L13.5291 8.37179C13.5675 8.34885 13.6066 8.3253 13.645 8.30115L13.6541 8.29572C13.6895 8.27398 13.7267 8.24983 13.7687 8.22266L13.787 8.21058C13.8206 8.18824 13.8547 8.1659 13.8889 8.14296ZM1.5061 0.221436H8.40052C8.82369 0.221436 9.21941 0.407398 9.48709 0.732229L14.8706 7.24998C14.8943 7.27896 14.9419 7.28439 14.9706 7.26205L14.9718 7.26085C14.9754 7.25843 14.9791 7.25481 14.9821 7.25058L20.3662 0.731625C20.6345 0.407398 21.0302 0.221436 21.4528 0.221436H28.3472C28.8954 0.221436 29.3813 0.526946 29.6161 1.01781C29.8509 1.50929 29.7807 2.07563 29.4332 2.49646L18.076 16.2474C17.2998 17.1875 16.1516 17.7261 14.9267 17.7261C13.7017 17.7261 12.5541 17.1875 11.7779 16.2474L4.67923 7.6527C4.67435 7.64726 4.66947 7.64122 4.6646 7.63579L0.420139 2.49646C0.0725826 2.07563 0.00246137 1.50929 0.237215 1.01781C0.471968 0.526946 0.957937 0.221436 1.5061 0.221436Z" fill="black"/>
</g>
<path d="M45.8688 14.0461V17.8765H31.6592V0.350098H45.5395V4.18044H36.6153V7.13653H44.4786V10.8413H36.6153V14.0461H45.8688Z" fill="black"/>
<path d="M48.322 0.350098H53.3268V13.9447H61.7731V17.8765H48.322V0.350098Z" fill="black"/>
<path d="M102.452 0.350098L94.8672 17.8765H89.938L82.3771 0.350098H87.7868L92.5916 11.7663L97.4964 0.350098H102.452Z" fill="black"/>
<path d="M103.541 0.350098H108.546V17.8765H103.541V0.350098Z" fill="black"/>
<path d="M118.003 18.2268C116.57 18.2268 115.18 18.0517 113.83 17.7027C112.482 17.3519 111.387 16.884 110.545 16.2995L112.189 12.643C112.98 13.1617 113.898 13.5795 114.942 13.8965C115.987 14.2141 117.016 14.3723 118.028 14.3723C119.95 14.3723 120.911 13.8965 120.911 12.9449C120.911 12.4444 120.636 12.0731 120.089 11.8316C119.54 11.5889 118.66 11.3335 117.447 11.066C116.116 10.7828 115.002 10.4785 114.108 10.1531C113.216 9.82825 112.448 9.30658 111.808 8.58809C111.167 7.8702 110.847 6.90175 110.847 5.68273C110.847 4.61525 111.142 3.65163 111.733 2.79185C112.323 1.93208 113.203 1.25223 114.374 0.751096C115.546 0.250567 116.984 0 118.686 0C119.848 0 120.994 0.129812 122.123 0.388831C123.253 0.646643 124.248 1.02581 125.108 1.52634L123.567 5.20695C121.88 4.30552 120.245 3.8545 118.662 3.8545C117.667 3.8545 116.941 4.00122 116.486 4.29405C116.031 4.58567 115.803 4.96544 115.803 5.43397C115.803 5.90129 116.073 6.25148 116.613 6.48454C117.153 6.7182 118.021 6.96032 119.218 7.21149C120.565 7.49526 121.682 7.79956 122.567 8.12439C123.451 8.44983 124.218 8.96726 124.867 9.6773C125.517 10.3861 125.842 11.3498 125.842 12.5682C125.842 13.62 125.547 14.5715 124.957 15.4228C124.367 16.2747 123.481 16.9552 122.301 17.4636C121.122 17.972 119.689 18.2268 118.003 18.2268Z" fill="black"/>
<path d="M131.58 4.28188H126.144V0.350098H142V4.28188H136.588V17.8765H131.58V4.28188Z" fill="black"/>
<path d="M155.4 14.4712H147.915L146.525 17.8765H141.417L149.229 0.350098H154.161L162 17.8765H156.79L155.4 14.4712ZM153.934 10.8171L151.656 5.20686L149.381 10.8171H153.934Z" fill="black"/>
<mask id="mask1_29_50" style="mask-type:luminance" maskUnits="userSpaceOnUse" x="63" y="0" width="20" height="19">
<path d="M63.2462 0.220215H82.2118V19H63.2462V0.220215Z" fill="white"/>
</mask>
<g mask="url(#mask1_29_50)">
<path fill-rule="evenodd" clip-rule="evenodd" d="M72.7296 0.220215C77.9667 0.220215 82.213 4.4243 82.213 9.61012C82.213 14.7965 77.9667 19.0012 72.7296 19.0012C67.4924 19.0012 63.2462 14.7965 63.2462 9.61012C63.2462 4.4243 67.4924 0.220215 72.7296 0.220215ZM72.7296 2.43426C76.7326 2.43426 79.9764 5.64755 79.9764 9.61012C79.9764 13.5739 76.7326 16.786 72.7296 16.786C68.7278 16.786 65.4827 13.5739 65.4827 9.61012C65.4827 5.64755 68.7278 2.43426 72.7296 2.43426ZM71.7912 10.8889C71.5832 10.7392 71.2924 10.7863 71.1412 10.9922L68.8046 14.171C69.0418 14.3709 69.2955 14.5538 69.5613 14.7168L71.8936 11.5343C72.0448 11.3267 72.0003 11.0393 71.7912 10.8889ZM68.2217 13.6071C68.7467 12.8886 69.1686 12.3066 69.5113 11.8399C70.007 11.1636 69.6058 9.93857 68.8022 9.68076C68.2485 9.50144 67.5607 9.27684 66.7095 9.00091C66.6894 9.20197 66.6784 9.40484 66.6784 9.61012C66.6784 11.1461 67.2613 12.5469 68.2217 13.6071ZM66.8461 8.20514L70.6241 9.41752C70.8686 9.49601 71.1314 9.36499 71.2119 9.12167C71.2912 8.87955 71.1564 8.61993 70.9113 8.54144L67.1351 7.32302C67.0162 7.60679 66.9193 7.90144 66.8461 8.20514ZM67.4973 6.5997C68.3504 6.8726 69.0406 7.08996 69.5936 7.26808C70.3967 7.5271 71.4491 6.76936 71.4491 5.93434C71.4491 5.35653 71.4534 4.63924 71.4546 3.75169C69.7668 4.11034 68.34 5.16573 67.4973 6.5997ZM72.2613 3.63637L72.2643 7.56815C72.2643 7.82295 72.4716 8.02944 72.7296 8.02944C72.9869 8.02944 73.1948 7.82295 73.1948 7.56815L73.1979 3.63637C73.0436 3.6243 72.8875 3.61886 72.7296 3.61886C72.5716 3.61886 72.4162 3.6243 72.2613 3.63637ZM74.0046 3.75169C74.0064 4.63924 74.01 5.35653 74.01 5.93434C74.01 6.76936 75.0631 7.5271 75.8655 7.26808C76.4198 7.08996 77.1094 6.8726 77.9624 6.5997C77.1191 5.16634 75.6923 4.11034 74.0046 3.75169ZM78.324 7.32302L74.5478 8.54144C74.3033 8.61993 74.1686 8.87955 74.2478 9.12167C74.3277 9.36499 74.5905 9.49601 74.835 9.41752L78.6142 8.20514C78.5399 7.90144 78.4423 7.60679 78.324 7.32302ZM78.7502 9.00091C77.8984 9.27684 77.2112 9.50144 76.657 9.68076C75.8539 9.93857 75.4521 11.1636 75.9478 11.8399C76.2905 12.3066 76.7118 12.8886 77.2387 13.6071C78.1978 12.5469 78.7813 11.1461 78.7813 9.61012C78.7813 9.40484 78.771 9.20197 78.7502 9.00091ZM76.6551 14.171L74.3192 10.9922C74.1674 10.7863 73.8759 10.7392 73.668 10.8889C73.4594 11.0393 73.4149 11.3267 73.5661 11.5343L75.8972 14.7168C76.1643 14.5538 76.4173 14.3709 76.6551 14.171ZM75.1765 15.093C74.6478 14.3751 74.2186 13.7973 73.8759 13.33C73.3802 12.655 72.079 12.655 71.5832 13.33C71.2406 13.7973 70.8119 14.3751 70.2833 15.093C71.0314 15.4202 71.8588 15.6026 72.7296 15.6026C73.6003 15.6026 74.4277 15.4202 75.1765 15.093Z" fill="black"/>
</g>
</svg>
